<svg xmlns="http://www.w3.org/2000/svg" xmlns:se="http://svg-edit.googlecode.com" xmlns:xlink="http://www.w3.org/1999/xlink" xmlns:dc="http://purl.org/dc/elements/1.1/" xmlns:cc="http://creativecommons.org/ns#" xmlns:rdf="http://www.w3.org/1999/02/22-rdf-syntax-ns#" xmlns:inkscape="http://www.inkscape.org/namespaces/inkscape" width="400" height="400">
                                    <title>my vector image</title>
                                    <!-- Created with Vector Paint - http://www.vectorpaint.yaks.com/ https://chrome.google.com/webstore/detail/hnbpdiengicdefcjecjbnjnoifekhgdo -->
                                    <rect id="backgroundrect" width="100%" height="100%" x="0" y="0" fill="#FFFFFF" stroke="none" class="" style=""/>
                                <g style="" class="currentLayer"><title>Layer 1</title><path fill="#009900" stroke="#222222" stroke-width="2" stroke-linejoin="round" stroke-dashoffset="" fill-rule="nonzero" marker-start="" marker-mid="" marker-end="" id="svg_3" d="M144.30799697913451,364.96725468251736 C164.13980817520476,344.25814287493944 180.97063040284831,319.59252147779273 188.07965971956608,291.58753967265255 C166.82026443423572,307.7504005594151 147.32221732358292,333.7473897896348 117.66645071700802,332.76249236339584 C95.27818803301356,334.0474453694727 68.60868261322233,334.06919575644514 52.84915554691047,315.3445278247964 C17.63111798162815,287.02426385630207 8.170565988938572,230.421237944405 37.09006165064703,194.37977036998853 C56.880275395712125,168.3564102722811 91.4383324500949,157.32178395580553 123.15264126359186,161.22498737670105 C143.13515625738376,152.7462087353553 119.24427918121178,131.27715914663528 116.84168181863393,117.8782250745798 C101.96935264311537,69.27518051061405 137.00599696907017,10.976727029575674 188.52460411738645,5.377767880411309 C225.47667389157144,0.07274742494785259 261.60037814334373,23.993985783597154 279.68157853138825,55.03865308148039 C289.5074503911979,76.76117278029555 284.3878135900517,101.41469166881993 282.09534643066877,123.95031092743513 C274.3755604721778,135.27529243993916 254.6042486928566,162.67337675464665 282.81859602135387,160.51532357389453 C310.7144846061417,160.07384453646154 340.17289631342675,168.2635149864633 358.56771181645735,190.446848858505 C385.4734393026019,220.32333529424818 387.94144534247755,269.6944691120835 360.8715201552885,300.2227320805386 C346.5523753842109,318.8173046076732 325.0651589061911,333.69963607339815 300.74553536673426,332.8710736555098 C276.94230303034107,335.27407793540686 251.166952474848,330.1101002729505 234.28774646544238,311.973099706862 C227.08874904232275,306.9285194613623 209.44876516440982,287.86901108235946 209.4548557978163,292.0488132686577 C227.08647818116052,328.7810295537705 247.02398286902212,366.92702099205775 282.29524784478696,389.68897816410527 C294.8973721761331,399.82192820908085 263.1002622515801,392.8553987118961 255.40273860830052,394.92066161775136 C208.76460588899337,394.96187840416746 162.12667006516475,395.0039090252199 115.48853734585857,395.0453227071125 C125.09496263391344,385.0191687685969 134.7019917347631,374.99344800012886 144.30799697913451,364.96728093524774 L144.30799697913451,364.96725468251736 z" style="color: rgb(153, 147, 0);" class="selected" fill-opacity="1"/></g></svg>