<svg xmlns="http://www.w3.org/2000/svg" xmlns:se="http://svg-edit.googlecode.com" xmlns:xlink="http://www.w3.org/1999/xlink" xmlns:dc="http://purl.org/dc/elements/1.1/" xmlns:cc="http://creativecommons.org/ns#" xmlns:rdf="http://www.w3.org/1999/02/22-rdf-syntax-ns#" xmlns:inkscape="http://www.inkscape.org/namespaces/inkscape" width="400" height="400" style="">
                                    <title>my vector image</title>
                                    <!-- Created with Vector Paint - http://www.vectorpaint.yaks.com/ https://chrome.google.com/webstore/detail/hnbpdiengicdefcjecjbnjnoifekhgdo -->
                                    <rect id="backgroundrect" width="100%" height="100%" x="0" y="0" fill="#FFFFFF" stroke="none" class="" style=""/>
                                <g style="" class="currentLayer"><title>Layer 1</title><path fill="#e767e7" stroke="#222222" stroke-width="2" stroke-linejoin="round" stroke-dashoffset="" fill-rule="nonzero" marker-start="" marker-mid="" marker-end="" id="svg_25" d="M84.55175938872758,389.67407927278947 C70.27592300318618,392.8810136186826 59.268912954581495,371.4216473616671 76.96997133933714,369.0872381995586 C92.5461777302739,369.38175166655896 73.09626534558788,353.83448096209463 87.15569036626236,348.5973514600078 C103.32777788777604,332.8143576599146 119.36848692632496,316.35559368573763 129.73275968862066,296.04073785426317 C124.51072984118515,289.1165697600928 115.89233709781276,282.5010574975497 117.01845479101759,273.02640073694323 C127.18359846435052,269.56533779921773 142.3267268482125,271.9111578584178 142.92886227361095,255.86535603693648 C152.17295254085528,226.90433328751345 154.63856149178483,196.2838036071103 156.66491472401586,166.11801221607186 C146.46333021041428,158.0308771446883 125.45577931722532,165.69206921064452 111.19888451029863,161.57283747141685 C89.57066505683265,155.7338788767371 119.26402743885443,144.55488848426998 128.78845051686812,145.4759418903623 C137.34653398869315,145.48878234055778 150.01889681935884,140.21439511071705 135.69477472497965,136.18333616467834 C147.77814891324707,135.6257211073502 165.15757061363513,120.29847394211365 145.28664207618738,114.7735702947994 C160.01854419325974,104.19672809160076 148.66671827783983,81.17997860341879 142.51558102424337,67.94324862978745 C133.24263165372759,51.959249452286244 117.9943290058458,40.382970935791896 100.75941980754948,34.2099947057682 C97.96903426097758,17.91053655553186 124.5438776037668,22.72806669408667 135.3228101130662,21.882205228451284 C151.64432422546642,22.504762841042037 168.28727080035603,21.687147813062797 182.50740567034174,12.800624515765412 C201.7205738500353,3.911050654257391 218.05413705287677,18.747322911735033 235.62977768055418,21.883532670618756 C253.40738097566617,23.02843877603649 271.90001609973,18.68520117107945 289.2100278914152,23.721886905907006 C294.5735196767329,27.53714715269197 303.49008911693466,33.56326232909248 292.7514521357289,36.45528654853066 C272.2426110536954,47.87134024266098 253.0898032010081,64.73609729815537 247.9486579787109,88.69275242397892 C240.1925665616589,102.01921238257219 253.94193172533565,113.5829057262117 241.37040344391934,123.13996601212538 C241.23958657110904,134.38443504226683 270.5439318149137,135.95574365232363 254.13931216452337,141.49284955648307 C265.3819176700799,147.58813212812112 289.49348784960034,143.74352775111763 291.9538636150622,157.28124247231494 C281.7477224009471,165.31009772700804 267.43549623060505,162.14156985689746 255.20660119475352,162.89111518220244 C251.05974844735152,164.3041518415442 240.63899557361262,159.44327561068081 242.22534001898913,166.58934353252747 C241.41279224620337,198.61101394823532 249.72951099319542,230.09623179808833 257.7724958486468,260.82779435746323 C257.782757997712,275.88415397350497 294.90892857357807,267.347284048618 274.2728189737535,284.4358044563691 C259.02960910880313,297.55892324989475 281.3782722708319,315.9427974633126 289.1206680585943,327.6157878000137 C299.6521219507665,340.4207672087361 318.3462347153183,346.90225886785123 316.7859413224773,365.69831663807787 C327.51356308646797,366.4706199382322 340.27357539177257,383.17326311904736 325.4415152103992,387.3349985353619 C245.16930041322104,389.0191397296377 164.83676358063394,390.17850729635893 84.55172109712665,389.67407927278947 L84.55175938872758,389.67407927278947 z" style="color: rgb(255, 131, 0);" class=""/></g></svg>