<svg xmlns="http://www.w3.org/2000/svg" xmlns:se="http://svg-edit.googlecode.com" xmlns:xlink="http://www.w3.org/1999/xlink" xmlns:dc="http://purl.org/dc/elements/1.1/" xmlns:cc="http://creativecommons.org/ns#" xmlns:rdf="http://www.w3.org/1999/02/22-rdf-syntax-ns#" xmlns:inkscape="http://www.inkscape.org/namespaces/inkscape" width="400" height="400" style="">
                                    <title>my vector image</title>
                                    <!-- Created with Vector Paint - http://www.vectorpaint.yaks.com/ https://chrome.google.com/webstore/detail/hnbpdiengicdefcjecjbnjnoifekhgdo -->
                                    <rect id="backgroundrect" width="100%" height="100%" x="0" y="0" fill="#FFFFFF" stroke="none" class="" style=""/>
                                <g style="" class="currentLayer"><title>Layer 1</title><path fill="#b6b6b6" stroke="#222222" stroke-width="2" stroke-linejoin="round" stroke-dashoffset="" fill-rule="nonzero" marker-start="" marker-mid="" marker-end="" id="svg_23" d="M241.19163613938974,51.741705702232295 C240.3619534229308,51.76795085928995 239.56016900086487,51.83786959801123 238.7270646745744,51.92084684016781 C225.39738263892963,53.2485467897957 213.63250401768627,61.707958088933545 207.65581024898188,74.31304055649242 L204.48705353990474,83.85211713004742 C205.17068349514466,80.5463678775453 206.22038725725884,77.3403707258855 207.65581024898188,74.31304055649242 C196.99716243466298,63.26981404917212 182.03667964143466,58.172691862367245 167.25436404476537,60.5642433540839 C152.4720356330785,62.95578203077961 139.6342324369331,72.54692602285235 132.6182791458632,86.44961877755061 C112.81210482083152,74.25104149895458 88.12331889687017,74.98985292210934 69.02341866405158,88.37535717657171 C49.92351843123285,101.76084861601683 39.743306502435395,125.46094307900977 42.837300395953996,149.37167799441178 L44.861778509385,159.08989570590543 C43.94693999769338,155.906106980602 43.26373293804877,152.66718804745986 42.837300395953996,149.37167799441178 L42.52922736097472,150.26737086907144 C25.926435923911725,152.07672327376082 12.310094748523195,164.95867420723616 8.77334197985784,182.19865397397123 C5.236589211192813,199.43862092568313 12.590807719871233,217.12801056195022 26.993593740669674,226.04256004371913 L49.48284840403607,231.50626863811783 C41.63018976659232,232.15264533575763 33.790320517206,230.24937166346 26.993593740669674,226.04256004371913 C15.884216109950088,238.4869421843768 13.327786595437676,256.9105554673208 20.656118767566966,272.1257111151296 C27.98443812467692,287.340841132908 43.635086532376484,296.10177699278034 59.78125324471402,294.11483406734584 L69.59554514685654,291.51733241984243 C66.43775809326705,292.8390733860535 63.158189922729946,293.6992686605919 59.78125324471402,294.11483406734584 C68.94731027159125,310.9887272121831 84.14581921089948,323.29766742661025 101.98710525663536,328.19573393736164 C119.82839130237254,333.09381326312973 138.77885560919705,330.1990031958443 154.57938846852255,320.17935062874835 C167.46947693848972,340.5071987103474 190.3475520658466,351.18415918552637 213.28911279283844,347.5873680570907 C236.23066070481556,343.9905769286548 255.15518741501688,326.7429337811029 261.8764593650154,303.3404168532719 L264.20899769840855,290.26337008432813 C263.8597371952759,294.7060421120925 263.10185702519885,299.07379754408106 261.8764593650154,303.3404168532719 C277.6559627796498,313.6884029989505 297.5047598548615,314.27155039731844 313.80858973480997,304.86308448817636 C330.1124196147597,295.4546185790344 340.2855704685872,277.51384954783254 340.43481416930916,257.97384314861205 L334.58978189650264,228.77828447638115 L311.5640649456871,209.02451076033367 C329.3687256697115,220.17763886282842 340.5936691336021,237.1705066356535 340.43481416930916,257.97384314861205 C361.6054803609153,258.19570955687703 379.5884364316805,240.0550134283927 387.65784828516627,219.23536339739948 C395.72726013865156,198.41568773636828 392.67474845870163,174.68009567325439 379.6479493757094,156.85071477932684 C385.0512351597986,143.57598354126864 384.73066748217593,128.47606053615854 378.76777548796093,115.46994489236887 C372.8048450486909,102.46382924857552 361.8057919087413,92.79705101971432 348.5766949501173,89.00237038187045 C345.6161951000836,71.76436412792543 333.4129915999544,57.898245434867704 317.2853938488308,53.35400157369189 C301.1577960977108,48.80975771251233 283.9848388756117,54.41321407923059 273.187096854903,67.77457483960406 L266.6295623910888,78.83631904806734 C268.3051644519301,74.83613678007069 270.4935594618019,71.10756882057605 273.187096854903,67.77457483960406 C265.5755015228234,57.273538932823485 253.6370178514603,51.348156496567036 241.19161050935503,51.74175696230381 L241.19163613938974,51.741705702232295 z" style="color: rgb(255, 131, 0);" class=""/></g></svg>