<svg xmlns="http://www.w3.org/2000/svg" xmlns:se="http://svg-edit.googlecode.com" xmlns:xlink="http://www.w3.org/1999/xlink" xmlns:dc="http://purl.org/dc/elements/1.1/" xmlns:cc="http://creativecommons.org/ns#" xmlns:rdf="http://www.w3.org/1999/02/22-rdf-syntax-ns#" xmlns:inkscape="http://www.inkscape.org/namespaces/inkscape" width="400" height="400" style="">
                                    <title>my vector image</title>
                                    <!-- Created with Vector Paint - http://www.vectorpaint.yaks.com/ https://chrome.google.com/webstore/detail/hnbpdiengicdefcjecjbnjnoifekhgdo -->
                                    <rect id="backgroundrect" width="100%" height="100%" x="0" y="0" fill="#FFFFFF" stroke="none" class="" style=""/>
                                <g style="" class="currentLayer"><title>Layer 1</title><path fill="#000000" stroke="#222222" stroke-width="2" stroke-linejoin="round" stroke-dashoffset="" fill-rule="nonzero" marker-start="" marker-mid="" marker-end="" id="svg_5" d="M127.18201913568734,375.0733177579997 C150.59155844163786,352.4826842815869 167.70959615194218,323.8753140845502 182.05296469749715,294.8890338505222 C190.815006106008,283.3279654118595 182.51952228364547,273.2137822050642 170.58511095609592,283.01737714901134 C139.9138320685053,303.4960104380567 98.16316407852115,310.5187193562098 64.95515109530346,291.83556139896325 C27.41475033209015,272.4234255263488 10.486046615324241,226.26344884040998 19.003617606932686,186.04240893574652 C24.39770002341361,145.28190346182626 54.06406408943121,113.332129648286 86.27469127746187,90.38177177572496 C123.2756774292931,63.91284890443609 163.23214403441284,41.19046383596553 197.04889982123646,10.540663693704541 C211.16888177167135,10.823721963279876 221.7954209569407,32.981188002721176 236.99158232051516,38.84454151232373 C277.3415074366304,68.89861858865551 325.15984454571355,91.02085999533448 356.93422134518926,131.20871358232844 C372.9872011990994,154.1081645353502 382.13647151809124,182.30603722947387 383.15789669194714,210.1800216547442 C378.2668831807827,247.9792119984123 355.72803564729304,287.84329197177794 316.8595452039342,298.6077486522723 C283.25892725416935,308.77432929652 248.68900129967346,295.8810181107037 219.40840110516197,279.4779194205399 C215.83188426034002,278.7103536524976 202.713695961488,268.37534448392296 207.91278806003837,276.4072104669449 C225.41765975727347,312.3300043694777 244.59712196160928,348.0005312998654 272.37389149624045,377.1678139144735 C274.00653093075806,380.8531513065169 286.8108059652609,389.59660582924 279.99634915263607,389.457694655406 C222.96257292073668,389.457694655406 165.92897504140905,389.457694655406 108.8951605911019,389.457694655406 C114.99062723233172,384.66294057467786 121.08632318400923,379.86805909925687 127.18201913568734,375.07330501852965 L127.18201913568734,375.0733177579997 z" style="color: rgb(153, 147, 0);" class="selected"/></g></svg>